# xmcd
#
# Track frame offsets:
#	150
#	13380
#	23993
#	47803
#	63234
#	78785
#	92780
#	107842
#	126646
#	141611
#
# Disc length: 2075 seconds
#
# Revision: 1
# Processed by: cddbd v1.5.2PL0 Copyright (c) Steve Scherf et al.
# Submitted via: audiograbber 1.83.01
#
DISCID=9008190a
DTITLE=dolly parton - love songs
DYEAR=2008
DGENRE=Country
TTITLE0=here you come again
TTITLE1=love is like a butterfly
TTITLE2=you are
TTITLE3=old flames can't hold a candle to you
TTITLE4=think about love
TTITLE5=i will always love you
TTITLE6=you're the only one
TTITLE7=islands in the stream (with kenny rogers)
TTITLE8=but you know i love you
TTITLE9=i really got the feeling
EXTD=
EXTT0=
EXTT1=
EXTT2=
EXTT3=
EXTT4=
EXTT5=
EXTT6=
EXTT7=
EXTT8=
EXTT9=
PLAYORDER=
